<svg width="500" height="500" viewBox="0 0 500 500" fill="none" xmlns="http://www.w3.org/2000/svg">
<path d="M500 382.4H0V382.65H500V382.4Z" fill="#EBEBEB"/>
<path d="M449.9 398.49H416.78V398.74H449.9V398.49Z" fill="#EBEBEB"/>
<path d="M331.22 401.21H322.53V401.46H331.22V401.21Z" fill="#EBEBEB"/>
<path d="M415.78 389.21H396.59V389.46H415.78V389.21Z" fill="#EBEBEB"/>
<path d="M95.65 390.89H52.46V391.14H95.65V390.89Z" fill="#EBEBEB"/>
<path d="M110.89 390.89H104.56V391.14H110.89V390.89Z" fill="#EBEBEB"/>
<path d="M225.15 395.11H131.47V395.36H225.15V395.11Z" fill="#EBEBEB"/>
<path d="M237 337.8H43.91C42.3973 337.797 40.9475 337.195 39.8789 336.124C38.8102 335.054 38.21 333.603 38.21 332.09V60.66C38.2232 59.156 38.8292 57.718 39.8964 56.6582C40.9637 55.5985 42.406 55.0026 43.91 55H237C238.514 55 239.967 55.6016 241.038 56.6724C242.108 57.7433 242.71 59.1956 242.71 60.71V332.09C242.71 333.604 242.108 335.057 241.038 336.128C239.967 337.198 238.514 337.8 237 337.8ZM43.91 55.2C42.4636 55.2026 41.0774 55.7791 40.0557 56.8027C39.0339 57.8264 38.46 59.2136 38.46 60.66V332.09C38.46 333.536 39.0339 334.924 40.0557 335.947C41.0774 336.971 42.4636 337.547 43.91 337.55H237C238.447 337.547 239.835 336.971 240.858 335.948C241.881 334.924 242.457 333.537 242.46 332.09V60.66C242.457 59.2127 241.881 57.8255 240.858 56.8021C239.835 55.7787 238.447 55.2026 237 55.2H43.91Z" fill="#EBEBEB"/>
<path d="M453.31 337.8H260.21C258.696 337.797 257.246 337.195 256.175 336.125C255.105 335.054 254.503 333.604 254.5 332.09V60.66C254.516 59.1551 255.124 57.7171 256.193 56.6576C257.262 55.5981 258.705 55.0025 260.21 55H453.31C454.812 55.0052 456.252 55.6022 457.317 56.6617C458.382 57.7212 458.987 59.1578 459 60.66V332.09C459 333.601 458.401 335.05 457.335 336.121C456.268 337.191 454.821 337.795 453.31 337.8ZM260.21 55.2C258.763 55.2026 257.375 55.7787 256.352 56.8021C255.329 57.8255 254.753 59.2127 254.75 60.66V332.09C254.753 333.537 255.329 334.924 256.352 335.948C257.375 336.971 258.763 337.547 260.21 337.55H453.31C454.757 337.547 456.145 336.971 457.168 335.948C458.191 334.924 458.767 333.537 458.77 332.09V60.66C458.767 59.2127 458.191 57.8255 457.168 56.8021C456.145 55.7787 454.757 55.2026 453.31 55.2H260.21Z" fill="#EBEBEB"/>
<path d="M287.48 264.17H142.41V356.45H287.48V264.17Z" fill="#EBEBEB"/>
<path d="M287.48 264.17H142.41V270.42H287.48V264.17Z" fill="#E0E0E0"/>
<path d="M283.44 269.18C284.478 269.18 285.32 268.338 285.32 267.3C285.32 266.262 284.478 265.42 283.44 265.42C282.402 265.42 281.56 266.262 281.56 267.3C281.56 268.338 282.402 269.18 283.44 269.18Z" fill="#FAFAFA"/>
<path d="M277.18 269.18C278.218 269.18 279.06 268.338 279.06 267.3C279.06 266.262 278.218 265.42 277.18 265.42C276.142 265.42 275.3 266.262 275.3 267.3C275.3 268.338 276.142 269.18 277.18 269.18Z" fill="#FAFAFA"/>
<path d="M270.92 269.18C271.958 269.18 272.8 268.338 272.8 267.3C272.8 266.262 271.958 265.42 270.92 265.42C269.882 265.42 269.04 266.262 269.04 267.3C269.04 268.338 269.882 269.18 270.92 269.18Z" fill="#FAFAFA"/>
<path d="M368.51 289.96H223.44V382.24H368.51V289.96Z" fill="#F5F5F5"/>
<path d="M368.51 289.96H223.44V296.21H368.51V289.96Z" fill="#E0E0E0"/>
<path d="M366.35 293.08C366.35 293.452 366.24 293.815 366.033 294.124C365.827 294.434 365.533 294.675 365.189 294.817C364.846 294.959 364.468 294.996 364.103 294.924C363.739 294.851 363.404 294.672 363.141 294.409C362.878 294.146 362.699 293.811 362.626 293.447C362.554 293.082 362.591 292.704 362.733 292.361C362.875 292.017 363.116 291.723 363.426 291.517C363.735 291.31 364.098 291.2 364.47 291.2C364.969 291.2 365.447 291.398 365.799 291.751C366.152 292.103 366.35 292.581 366.35 293.08Z" fill="#FAFAFA"/>
<path d="M360.09 293.08C360.09 293.452 359.98 293.815 359.773 294.124C359.567 294.434 359.273 294.675 358.929 294.817C358.586 294.959 358.208 294.996 357.843 294.924C357.479 294.851 357.144 294.672 356.881 294.409C356.618 294.146 356.439 293.811 356.366 293.447C356.294 293.082 356.331 292.704 356.473 292.361C356.615 292.017 356.856 291.723 357.165 291.517C357.475 291.31 357.838 291.2 358.21 291.2C358.709 291.2 359.187 291.398 359.539 291.751C359.892 292.103 360.09 292.581 360.09 293.08Z" fill="#FAFAFA"/>
<path d="M353.83 293.08C353.83 293.454 353.718 293.819 353.509 294.129C353.3 294.44 353.004 294.68 352.657 294.821C352.311 294.962 351.93 294.996 351.564 294.919C351.198 294.843 350.864 294.659 350.603 294.391C350.342 294.123 350.167 293.783 350.1 293.415C350.033 293.047 350.078 292.668 350.228 292.325C350.378 291.983 350.627 291.693 350.942 291.492C351.258 291.292 351.626 291.19 352 291.2C352.49 291.213 352.955 291.417 353.297 291.768C353.639 292.119 353.83 292.59 353.83 293.08Z" fill="#FAFAFA"/>
<path d="M265.22 86.89H264.86C265.02 86.0291 265.104 85.1557 265.11 84.28C265.107 80.4626 263.589 76.8025 260.889 74.1041C258.189 71.4058 254.527 69.89 250.71 69.89H250.6C249.613 68.1903 248.188 66.7862 246.474 65.8238C244.76 64.8614 242.819 64.3758 240.854 64.4177C238.889 64.4595 236.971 65.0273 235.299 66.0618C233.628 67.0963 232.264 68.5598 231.35 70.3C230.349 70.0313 229.317 69.8935 228.28 69.89C225.149 69.8904 222.14 71.1044 219.886 73.2769C217.631 75.4494 216.306 78.4112 216.19 81.54C214.355 82.9246 213 84.8491 212.316 87.0433C211.631 89.2375 211.651 91.5911 212.372 93.7735C213.094 95.9558 214.481 97.8573 216.339 99.2109C218.196 100.564 220.432 101.302 222.73 101.32C223.617 101.318 224.5 101.207 225.36 100.99H263.06C263.759 101.207 264.488 101.319 265.22 101.32C267.135 101.32 268.971 100.559 270.325 99.2053C271.679 97.8513 272.44 96.0149 272.44 94.1C272.44 92.1851 271.679 90.3487 270.325 88.9947C268.971 87.6407 267.135 86.88 265.22 86.88V86.89Z" fill="#EBEBEB"/>
<path d="M380.69 115.27H380.41C380.535 114.611 380.599 113.941 380.6 113.27C380.6 110.353 379.441 107.555 377.378 105.492C375.315 103.429 372.517 102.27 369.6 102.27H369.52C368.767 100.965 367.677 99.8858 366.365 99.1459C365.052 98.406 363.565 98.0324 362.058 98.0641C360.552 98.0958 359.082 98.5316 357.801 99.326C356.521 100.12 355.477 101.244 354.78 102.58C353.437 102.217 352.03 102.163 350.664 102.421C349.297 102.68 348.007 103.244 346.89 104.073C345.772 104.901 344.857 105.972 344.213 107.205C343.569 108.437 343.212 109.8 343.17 111.19C341.748 112.24 340.693 113.712 340.158 115.397C339.622 117.082 339.632 118.892 340.186 120.571C340.741 122.25 341.811 123.71 343.245 124.745C344.678 125.779 346.402 126.334 348.17 126.33C348.955 126.328 349.736 126.217 350.49 126H378.83C379.589 126.275 380.4 126.38 381.204 126.308C382.008 126.236 382.787 125.989 383.486 125.584C384.185 125.179 384.786 124.625 385.248 123.963C385.71 123.301 386.021 122.545 386.16 121.749C386.298 120.954 386.261 120.138 386.05 119.358C385.84 118.578 385.461 117.854 384.941 117.237C384.42 116.619 383.771 116.123 383.038 115.783C382.306 115.443 381.508 115.268 380.7 115.27H380.69Z" fill="#EBEBEB"/>
<path d="M152.69 123.27H152.41C152.535 122.611 152.599 121.941 152.6 121.27C152.6 118.353 151.441 115.555 149.378 113.492C147.315 111.429 144.517 110.27 141.6 110.27H141.52C140.767 108.965 139.677 107.886 138.365 107.146C137.052 106.406 135.565 106.032 134.058 106.064C132.552 106.096 131.082 106.532 129.801 107.326C128.521 108.12 127.477 109.244 126.78 110.58C125.437 110.217 124.03 110.163 122.663 110.421C121.297 110.68 120.007 111.244 118.89 112.073C117.772 112.901 116.857 113.972 116.213 115.205C115.569 116.437 115.212 117.8 115.17 119.19C113.748 120.24 112.693 121.712 112.158 123.397C111.622 125.082 111.632 126.892 112.186 128.571C112.74 130.25 113.811 131.71 115.245 132.745C116.678 133.779 118.402 134.334 120.17 134.33C120.955 134.328 121.736 134.217 122.49 134H150.83C151.589 134.275 152.4 134.38 153.204 134.308C154.008 134.236 154.787 133.989 155.486 133.584C156.184 133.179 156.786 132.625 157.248 131.963C157.71 131.301 158.021 130.545 158.16 129.749C158.298 128.954 158.261 128.138 158.05 127.358C157.84 126.578 157.461 125.854 156.941 125.237C156.42 124.619 155.771 124.123 155.038 123.783C154.306 123.443 153.508 123.268 152.7 123.27H152.69Z" fill="#EBEBEB"/>
<path d="M78.78 346.78L77.52 345C77.2916 344.685 76.9906 344.429 76.6424 344.255C76.2942 344.081 75.9092 343.994 75.52 344H66.7C66.3331 343.994 65.971 344.083 65.6486 344.258C65.3262 344.433 65.0546 344.689 64.86 345L63.86 346.75C63.6647 347.06 63.3929 347.315 63.0707 347.49C62.7485 347.666 62.3867 347.755 62.02 347.75H56.68C56.3841 347.748 56.091 347.807 55.8192 347.924C55.5474 348.041 55.3027 348.212 55.1007 348.429C54.8986 348.645 54.7436 348.9 54.6454 349.179C54.5472 349.459 54.5079 349.755 54.53 350.05L56.24 379.64C56.2824 380.257 56.5545 380.835 57.0026 381.261C57.4506 381.687 58.042 381.929 58.66 381.94H100.57C100.866 381.942 101.159 381.883 101.431 381.766C101.703 381.649 101.947 381.478 102.149 381.261C102.351 381.045 102.506 380.79 102.605 380.511C102.703 380.231 102.742 379.935 102.72 379.64L101 350.11C100.962 349.493 100.693 348.914 100.246 348.487C99.7992 348.061 99.2077 347.819 98.59 347.81H80.74C80.3554 347.804 79.9775 347.708 79.637 347.529C79.2965 347.35 79.0029 347.093 78.78 346.78Z" fill="#E0E0E0"/>
<path d="M102.78 350.63H64.38C63.5948 350.64 62.8406 350.938 62.2601 351.467C61.6796 351.996 61.3131 352.719 61.23 353.5L58.92 379.13C58.8816 379.497 58.9217 379.868 59.0376 380.218C59.1536 380.568 59.3426 380.889 59.5923 381.161C59.842 381.432 60.1466 381.647 60.4859 381.792C60.8251 381.937 61.1913 382.008 61.56 382H100C100.786 381.988 101.54 381.69 102.122 381.161C102.703 380.633 103.073 379.911 103.16 379.13L105.47 353.5C105.511 353.129 105.471 352.753 105.352 352.398C105.234 352.044 105.041 351.719 104.785 351.446C104.53 351.174 104.218 350.959 103.872 350.819C103.526 350.678 103.153 350.613 102.78 350.63Z" fill="#F0F0F0"/>
<path d="M417.71 347.2L416.46 345.45C416.231 345.136 415.929 344.881 415.581 344.707C415.233 344.533 414.849 344.445 414.46 344.45H405.6C405.233 344.442 404.87 344.53 404.547 344.706C404.225 344.881 403.953 345.138 403.76 345.45L402.7 347.2C402.505 347.511 402.234 347.767 401.911 347.942C401.589 348.117 401.227 348.206 400.86 348.2H395.57C395.274 348.198 394.981 348.257 394.709 348.374C394.437 348.491 394.193 348.662 393.991 348.879C393.789 349.095 393.634 349.35 393.535 349.629C393.437 349.909 393.398 350.205 393.42 350.5L395.14 380.09C395.178 380.707 395.447 381.286 395.894 381.713C396.341 382.139 396.932 382.381 397.55 382.39H439.5C439.796 382.392 440.089 382.333 440.361 382.216C440.633 382.099 440.877 381.928 441.079 381.711C441.281 381.495 441.436 381.24 441.535 380.961C441.633 380.681 441.672 380.385 441.65 380.09L439.94 350.5C439.898 349.883 439.626 349.305 439.177 348.879C438.729 348.453 438.138 348.211 437.52 348.2H419.67C419.288 348.198 418.912 348.106 418.571 347.932C418.231 347.759 417.936 347.508 417.71 347.2Z" fill="#E0E0E0"/>
<path d="M441.71 351.05H403.32C402.534 351.06 401.778 351.357 401.196 351.886C400.614 352.415 400.245 353.138 400.16 353.92L397.85 379.55C397.812 379.917 397.852 380.288 397.968 380.638C398.084 380.988 398.273 381.309 398.522 381.581C398.772 381.852 399.077 382.067 399.416 382.212C399.755 382.357 400.121 382.428 400.49 382.42H438.88C439.666 382.408 440.42 382.11 441.002 381.581C441.583 381.053 441.953 380.331 442.04 379.55L444.35 353.92C444.39 353.553 444.351 353.181 444.236 352.831C444.12 352.48 443.931 352.158 443.681 351.886C443.431 351.614 443.126 351.399 442.786 351.255C442.446 351.11 442.079 351.041 441.71 351.05Z" fill="#F0F0F0"/>
<path d="M297 323.29L295.74 321.54C295.512 321.225 295.211 320.969 294.862 320.795C294.514 320.621 294.129 320.534 293.74 320.54H284.88C284.513 320.534 284.151 320.623 283.829 320.798C283.506 320.973 283.235 321.229 283.04 321.54L282 323.29C281.805 323.6 281.533 323.855 281.211 324.03C280.889 324.206 280.527 324.295 280.16 324.29H274.87C274.574 324.288 274.281 324.347 274.009 324.464C273.737 324.581 273.493 324.752 273.291 324.969C273.089 325.185 272.934 325.44 272.835 325.719C272.737 325.999 272.698 326.295 272.72 326.59L274.43 356.18C274.472 356.797 274.745 357.375 275.193 357.801C275.641 358.227 276.232 358.469 276.85 358.48H318.75C319.046 358.484 319.34 358.426 319.613 358.309C319.885 358.193 320.13 358.021 320.333 357.805C320.535 357.588 320.69 357.332 320.788 357.052C320.885 356.772 320.924 356.475 320.9 356.18L319.19 326.59C319.152 325.973 318.883 325.394 318.436 324.967C317.989 324.541 317.398 324.299 316.78 324.29H298.93C298.553 324.283 298.183 324.189 297.848 324.016C297.513 323.842 297.223 323.594 297 323.29Z" fill="#E0E0E0"/>
<path d="M321 327.14H282.6C281.815 327.152 281.062 327.451 280.482 327.979C279.902 328.508 279.535 329.23 279.45 330.01L277.14 355.64C277.1 356.007 277.139 356.379 277.254 356.729C277.37 357.08 277.559 357.402 277.809 357.674C278.059 357.946 278.364 358.161 278.704 358.305C279.044 358.45 279.411 358.519 279.78 358.51H318.17C318.956 358.498 319.71 358.2 320.292 357.671C320.873 357.143 321.243 356.421 321.33 355.64L323.6 330C323.64 329.637 323.602 329.269 323.489 328.922C323.376 328.574 323.19 328.255 322.944 327.984C322.699 327.714 322.398 327.499 322.063 327.353C321.728 327.208 321.365 327.135 321 327.14Z" fill="#F0F0F0"/>
<path d="M250 427.56C357.082 427.56 443.89 422.492 443.89 416.24C443.89 409.988 357.082 404.92 250 404.92C142.918 404.92 56.11 409.988 56.11 416.24C56.11 422.492 142.918 427.56 250 427.56Z" fill="#F5F5F5"/>
<path d="M161.63 127.01H61.95C60.6411 127.01 59.58 128.071 59.58 129.38V303.54C59.58 304.849 60.6411 305.91 61.95 305.91H161.63C162.939 305.91 164 304.849 164 303.54V129.38C164 128.071 162.939 127.01 161.63 127.01Z" fill="#061026"/>
<path opacity="0.7" d="M161.63 127.01H61.95C60.6411 127.01 59.58 128.071 59.58 129.38V303.54C59.58 304.849 60.6411 305.91 61.95 305.91H161.63C162.939 305.91 164 304.849 164 303.54V129.38C164 128.071 162.939 127.01 161.63 127.01Z" fill="white"/>
<path d="M86.34 149.68H66.67V152.35H86.34V149.68Z" fill="#061026"/>
<path d="M86.34 155.68H66.67V158.35H86.34V155.68Z" fill="#061026"/>
<path d="M156.38 149.68H136.71V152.35H156.38V149.68Z" fill="#061026"/>
<path d="M119.71 137.33H100.04V140H119.71V137.33Z" fill="#061026"/>
<path d="M156.38 132.67H66.67V135.34H156.38V132.67Z" fill="#061026"/>
<path d="M156.37 164H76.67V166.67H156.37V164Z" fill="#061026"/>
<path d="M156.38 169.33H66.67V172H156.38V169.33Z" fill="#061026"/>
<path d="M156.38 174.67H66.67V177.34H156.38V174.67Z" fill="#061026"/>
<path d="M156.38 180H66.67V182.67H156.38V180Z" fill="#061026"/>
<path d="M146.37 185.33H66.67V188H146.37V185.33Z" fill="#061026"/>
<path d="M156.37 195.02H76.67V197.69H156.37V195.02Z" fill="#061026"/>
<path d="M156.38 200.35H66.67V203.02H156.38V200.35Z" fill="#061026"/>
<path d="M156.38 205.69H66.67V208.36H156.38V205.69Z" fill="#061026"/>
<path d="M156.38 211.02H66.67V213.69H156.38V211.02Z" fill="#061026"/>
<path d="M146.37 216.35H66.67V219.02H146.37V216.35Z" fill="#061026"/>
<path d="M156.37 226.04H76.67V228.71H156.37V226.04Z" fill="#061026"/>
<path d="M156.38 231.37H66.67V234.04H156.38V231.37Z" fill="#061026"/>
<path d="M156.38 236.71H66.67V239.38H156.38V236.71Z" fill="#061026"/>
<path d="M156.38 242.04H66.67V244.71H156.38V242.04Z" fill="#061026"/>
<path d="M146.37 247.37H66.67V250.04H146.37V247.37Z" fill="#061026"/>
<path d="M156.37 258.06H76.67V260.73H156.37V258.06Z" fill="#061026"/>
<path d="M156.38 263.39H66.67V266.06H156.38V263.39Z" fill="#061026"/>
<path d="M156.38 268.73H66.67V271.4H156.38V268.73Z" fill="#061026"/>
<path d="M156.38 274.06H66.67V276.73H156.38V274.06Z" fill="#061026"/>
<path d="M146.37 279.39H66.67V282.06H146.37V279.39Z" fill="#061026"/>
<path d="M156.38 294.77H136.71V297.44H156.38V294.77Z" fill="#061026"/>
<g opacity="0.2">
<path d="M86.34 149.68H66.67V152.35H86.34V149.68Z" fill="white"/>
<path d="M86.34 155.68H66.67V158.35H86.34V155.68Z" fill="white"/>
<path d="M156.38 149.68H136.71V152.35H156.38V149.68Z" fill="white"/>
<path d="M119.71 137.33H100.04V140H119.71V137.33Z" fill="white"/>
<path d="M156.38 132.67H66.67V135.34H156.38V132.67Z" fill="white"/>
<path d="M156.37 164H76.67V166.67H156.37V164Z" fill="white"/>
<path d="M156.38 169.33H66.67V172H156.38V169.33Z" fill="white"/>
<path d="M156.38 174.67H66.67V177.34H156.38V174.67Z" fill="white"/>
<path d="M156.38 180H66.67V182.67H156.38V180Z" fill="white"/>
<path d="M146.37 185.33H66.67V188H146.37V185.33Z" fill="white"/>
<path d="M156.37 195.02H76.67V197.69H156.37V195.02Z" fill="white"/>
<path d="M156.38 200.35H66.67V203.02H156.38V200.35Z" fill="white"/>
<path d="M156.38 205.69H66.67V208.36H156.38V205.69Z" fill="white"/>
<path d="M156.38 211.02H66.67V213.69H156.38V211.02Z" fill="white"/>
<path d="M146.37 216.35H66.67V219.02H146.37V216.35Z" fill="white"/>
<path d="M156.37 226.04H76.67V228.71H156.37V226.04Z" fill="white"/>
<path d="M156.38 231.37H66.67V234.04H156.38V231.37Z" fill="white"/>
<path d="M156.38 236.71H66.67V239.38H156.38V236.71Z" fill="white"/>
<path d="M156.38 242.04H66.67V244.71H156.38V242.04Z" fill="white"/>
<path d="M146.37 247.37H66.67V250.04H146.37V247.37Z" fill="white"/>
<path d="M156.37 258.06H76.67V260.73H156.37V258.06Z" fill="white"/>
<path d="M156.38 263.39H66.67V266.06H156.38V263.39Z" fill="white"/>
<path d="M156.38 268.73H66.67V271.4H156.38V268.73Z" fill="white"/>
<path d="M156.38 274.06H66.67V276.73H156.38V274.06Z" fill="white"/>
<path d="M146.37 279.39H66.67V282.06H146.37V279.39Z" fill="white"/>
<path d="M156.38 294.77H136.71V297.44H156.38V294.77Z" fill="white"/>
</g>
<path opacity="0.1" d="M166.63 265.3H111.03C109.721 265.3 108.66 266.361 108.66 267.67V313.06C108.66 314.369 109.721 315.43 111.03 315.43H166.63C167.939 315.43 169 314.369 169 313.06V267.67C169 266.361 167.939 265.3 166.63 265.3Z" fill="black"/>
<path d="M174.07 274.79H118.47C117.161 274.79 116.1 275.851 116.1 277.16V322.55C116.1 323.859 117.161 324.92 118.47 324.92H174.07C175.379 324.92 176.44 323.859 176.44 322.55V277.16C176.44 275.851 175.379 274.79 174.07 274.79Z" fill="#061026"/>
<path opacity="0.3" d="M174.07 274.79H118.47C117.161 274.79 116.1 275.851 116.1 277.16V322.55C116.1 323.859 117.161 324.92 118.47 324.92H174.07C175.379 324.92 176.44 323.859 176.44 322.55V277.16C176.44 275.851 175.379 274.79 174.07 274.79Z" fill="white"/>
<path d="M134 304H122V310H134V304Z" fill="#061026"/>
<path d="M169 304H135V310H169V304Z" fill="#061026"/>
<path d="M134 296H122V303H134V296Z" fill="#061026"/>
<path d="M134 289H122V295H134V289Z" fill="#061026"/>
<path d="M169 296H135V303H169V296Z" fill="#061026"/>
<path d="M169 311H135V318H169V311Z" fill="#061026"/>
<path d="M169 289H135V295H169V289Z" fill="#061026"/>
<path d="M134 311H122V318H134V311Z" fill="#061026"/>
<path d="M134 281H122V288H134V281Z" fill="#061026"/>
<path d="M169 281H135V288H169V281Z" fill="#061026"/>
<path opacity="0.1" d="M183.9 178.62H128.3C126.991 178.62 125.93 179.681 125.93 180.99V226.38C125.93 227.689 126.991 228.75 128.3 228.75H183.9C185.209 228.75 186.27 227.689 186.27 226.38V180.99C186.27 179.681 185.209 178.62 183.9 178.62Z" fill="black"/>
<path d="M195.07 176.25H139.47C138.161 176.25 137.1 177.311 137.1 178.62V224.01C137.1 225.319 138.161 226.38 139.47 226.38H195.07C196.379 226.38 197.44 225.319 197.44 224.01V178.62C197.44 177.311 196.379 176.25 195.07 176.25Z" fill="#061026"/>
<path opacity="0.3" d="M195.07 176.25H139.47C138.161 176.25 137.1 177.311 137.1 178.62V224.01C137.1 225.319 138.161 226.38 139.47 226.38H195.07C196.379 226.38 197.44 225.319 197.44 224.01V178.62C197.44 177.311 196.379 176.25 195.07 176.25Z" fill="white"/>
<path d="M191 183H176V190H191V183Z" fill="#061026"/>
<path d="M175 183H160V190H175V183Z" fill="#061026"/>
<path d="M175 190H160V220H175V190Z" fill="#061026"/>
<path d="M191 190H176V220H191V190Z" fill="#061026"/>
<path d="M159 183H144V190H159V183Z" fill="#061026"/>
<path d="M159 190H144V220H159V190Z" fill="#061026"/>
<path opacity="0.1" d="M202.8 231.23H147.2C145.891 231.23 144.83 232.291 144.83 233.6V278.99C144.83 280.299 145.891 281.36 147.2 281.36H202.8C204.109 281.36 205.17 280.299 205.17 278.99V233.6C205.17 232.291 204.109 231.23 202.8 231.23Z" fill="black"/>
<path d="M223.07 228.02H167.47C166.161 228.02 165.1 229.081 165.1 230.39V275.78C165.1 277.089 166.161 278.15 167.47 278.15H223.07C224.379 278.15 225.44 277.089 225.44 275.78V230.39C225.44 229.081 224.379 228.02 223.07 228.02Z" fill="#061026"/>
<path opacity="0.3" d="M223.07 228.02H167.47C166.161 228.02 165.1 229.081 165.1 230.39V275.78C165.1 277.089 166.161 278.15 167.47 278.15H223.07C224.379 278.15 225.44 277.089 225.44 275.78V230.39C225.44 229.081 224.379 228.02 223.07 228.02Z" fill="white"/>
<path d="M219 235H196V252H219V235Z" fill="#061026"/>
<path d="M195 235H172V252H195V235Z" fill="#061026"/>
<path d="M195 253H172V272H195V253Z" fill="#061026"/>
<path d="M219 253H196V272H219V253Z" fill="#061026"/>
<path opacity="0.2" d="M225 230.39V264H204.27C203.688 264.018 203.108 263.914 202.569 263.694C202.03 263.474 201.543 263.143 201.141 262.722C200.738 262.301 200.428 261.801 200.232 261.252C200.035 260.704 199.956 260.121 200 259.54V228H223.07C224.38 228 225 229.08 225 230.39Z" fill="black"/>
<path opacity="0.1" d="M204.06 131.49H148.46C147.151 131.49 146.09 132.551 146.09 133.86V179.25C146.09 180.559 147.151 181.62 148.46 181.62H204.06C205.369 181.62 206.43 180.559 206.43 179.25V133.86C206.43 132.551 205.369 131.49 204.06 131.49Z" fill="black"/>
<path d="M214.07 122.48H158.47C157.161 122.48 156.1 123.541 156.1 124.85V170.24C156.1 171.549 157.161 172.61 158.47 172.61H214.07C215.379 172.61 216.44 171.549 216.44 170.24V124.85C216.44 123.541 215.379 122.48 214.07 122.48Z" fill="#061026"/>
<path opacity="0.3" d="M214.07 122.48H158.47C157.161 122.48 156.1 123.541 156.1 124.85V170.24C156.1 171.549 157.161 172.61 158.47 172.61H214.07C215.379 172.61 216.44 171.549 216.44 170.24V124.85C216.44 123.541 215.379 122.48 214.07 122.48Z" fill="white"/>
<path d="M199 129H180V134H199V129Z" fill="#061026"/>
<path d="M189 135H180V166H189V135Z" fill="#061026"/>
<path d="M210 129H200V134H210V129Z" fill="#061026"/>
<path d="M210 135H200V166H210V135Z" fill="#061026"/>
<path d="M199 135H190V166H199V135Z" fill="#061026"/>
<path d="M179 135H163V166H179V135Z" fill="#061026"/>
<path d="M179 129H163V134H179V129Z" fill="#061026"/>
<path d="M380.09 239.69H312.01C309.409 239.69 307.3 241.799 307.3 244.4V312.48C307.3 315.081 309.409 317.19 312.01 317.19H380.09C382.691 317.19 384.8 315.081 384.8 312.48V244.4C384.8 241.799 382.691 239.69 380.09 239.69Z" fill="#061026"/>
<path opacity="0.25" d="M375 249.82H317.42V307.07H375V249.82Z" fill="white"/>
<path opacity="0.25" d="M317.42 307L332.08 294.95L336.87 298.81L352.05 285.99L359.51 293.33L375 280.33V307H317.42Z" fill="white"/>
<path opacity="0.25" d="M317.42 307L329.83 283.72L344.33 285.98L355.17 271.82L366.33 273.83L375 265.17V307H317.42Z" fill="white"/>
<path opacity="0.25" d="M317.42 307L346.05 303.46L355.33 298.82L365.33 299.82L375 295V307H317.42Z" fill="white"/>
<path opacity="0.2" d="M377 240V248C376.946 249.309 376.402 250.549 375.476 251.476C374.549 252.402 373.309 252.946 372 253H316V276.48C315.935 277.742 315.372 278.927 314.435 279.774C313.498 280.622 312.262 281.063 311 281H307V244.4C307 241.8 309.4 240 312 240H377Z" fill="black"/>
<path d="M285.7 173.88H217.62C215.019 173.88 212.91 175.989 212.91 178.59V246.67C212.91 249.271 215.019 251.38 217.62 251.38H285.7C288.301 251.38 290.41 249.271 290.41 246.67V178.59C290.41 175.989 288.301 173.88 285.7 173.88Z" fill="#061026"/>
<path opacity="0.8" d="M261.51 181.97H241.5C241.02 181.97 240.63 182.36 240.63 182.84V194.13C240.63 194.61 241.02 195 241.5 195H261.51C261.99 195 262.38 194.61 262.38 194.13V182.84C262.38 182.36 261.99 181.97 261.51 181.97Z" fill="white"/>
<path opacity="0.6" d="M246.24 210H230.39C229.91 210 229.52 210.39 229.52 210.87V219.08C229.52 219.56 229.91 219.95 230.39 219.95H246.24C246.721 219.95 247.11 219.56 247.11 219.08V210.87C247.11 210.39 246.721 210 246.24 210Z" fill="white"/>
<path opacity="0.6" d="M272.93 210H257.08C256.599 210 256.21 210.39 256.21 210.87V219.08C256.21 219.56 256.599 219.95 257.08 219.95H272.93C273.41 219.95 273.8 219.56 273.8 219.08V210.87C273.8 210.39 273.41 210 272.93 210Z" fill="white"/>
<path opacity="0.4" d="M256.52 231.05H249.03C248.55 231.05 248.16 231.44 248.16 231.92V238.68C248.16 239.16 248.55 239.55 249.03 239.55H256.52C257 239.55 257.39 239.16 257.39 238.68V231.92C257.39 231.44 257 231.05 256.52 231.05Z" fill="white"/>
<path opacity="0.4" d="M268.24 231.05H260.75C260.27 231.05 259.88 231.44 259.88 231.92V238.68C259.88 239.16 260.27 239.55 260.75 239.55H268.24C268.72 239.55 269.11 239.16 269.11 238.68V231.92C269.11 231.44 268.72 231.05 268.24 231.05Z" fill="white"/>
<path opacity="0.4" d="M279.97 231.05H272.48C272 231.05 271.61 231.44 271.61 231.92V238.68C271.61 239.16 272 239.55 272.48 239.55H279.97C280.45 239.55 280.84 239.16 280.84 238.68V231.92C280.84 231.44 280.45 231.05 279.97 231.05Z" fill="white"/>
<path opacity="0.4" d="M229.39 231.05H221.9C221.42 231.05 221.03 231.44 221.03 231.92V238.68C221.03 239.16 221.42 239.55 221.9 239.55H229.39C229.87 239.55 230.26 239.16 230.26 238.68V231.92C230.26 231.44 229.87 231.05 229.39 231.05Z" fill="white"/>
<path opacity="0.4" d="M242.11 231.05H234.62C234.14 231.05 233.75 231.44 233.75 231.92V238.68C233.75 239.16 234.14 239.55 234.62 239.55H242.11C242.59 239.55 242.98 239.16 242.98 238.68V231.92C242.98 231.44 242.59 231.05 242.11 231.05Z" fill="white"/>
<g opacity="0.3">
<path d="M264 210H265V203H252V195H251V203H238V210H239V204H264V210Z" fill="white"/>
<path d="M238 226H225V231H226V227H238V231H239V220H238V226Z" fill="white"/>
<path d="M265 227V220H264V227H252V231H253V228H264V231H265V228H276V231H277V227H265Z" fill="white"/>
</g>
<path opacity="0.2" d="M290 178.59V201H235.07C233.751 200.956 232.497 200.417 231.558 199.491C230.618 198.564 230.062 197.318 230 196V174H285.71C286.3 173.996 286.885 174.114 287.428 174.347C287.97 174.58 288.458 174.923 288.862 175.354C289.265 175.786 289.574 176.296 289.77 176.853C289.966 177.41 290.044 178.001 290 178.59Z" fill="black"/>
<path d="M391.97 140.19H323.89C321.289 140.19 319.18 142.299 319.18 144.9V212.98C319.18 215.581 321.289 217.69 323.89 217.69H391.97C394.571 217.69 396.68 215.581 396.68 212.98V144.9C396.68 142.299 394.571 140.19 391.97 140.19Z" fill="#061026"/>
<path opacity="0.25" d="M386.72 150.31H329.14V207.56H386.72V150.31Z" fill="white"/>
<path opacity="0.35" d="M340.82 185.5H335.02V200.37H340.82V185.5Z" fill="white"/>
<path opacity="0.35" d="M340.82 185.5H335.02V207.56H340.82V185.5Z" fill="white"/>
<path opacity="0.35" d="M350.82 175.08H345.02V196.97H350.82V175.08Z" fill="white"/>
<path opacity="0.35" d="M350.82 175.08H345.02V207.56H350.82V175.08Z" fill="white"/>
<path opacity="0.35" d="M360.83 181.49H355.03V199.06H360.83V181.49Z" fill="white"/>
<path opacity="0.35" d="M360.83 181.49H355.03V207.56H360.83V181.49Z" fill="white"/>
<path opacity="0.35" d="M370.84 172.49H365.04V196.13H370.84V172.49Z" fill="white"/>
<path opacity="0.35" d="M370.84 172.49H365.04V207.56H370.84V172.49Z" fill="white"/>
<path opacity="0.35" d="M380.84 158.74H375.04V191.64H380.84V158.74Z" fill="white"/>
<path opacity="0.35" d="M380.84 158.74H375.04V207.56H380.84V158.74Z" fill="white"/>
<path opacity="0.2" d="M340 140V182.4C339.969 183.65 339.442 184.837 338.537 185.699C337.631 186.562 336.42 187.03 335.17 187H319V144.89C319.028 143.604 319.551 142.377 320.46 141.467C321.369 140.556 322.594 140.031 323.88 140H340Z" fill="black"/>
<path d="M328.06 87.04H259.98C257.379 87.04 255.27 89.1487 255.27 91.75V159.83C255.27 162.431 257.379 164.54 259.98 164.54H328.06C330.661 164.54 332.77 162.431 332.77 159.83V91.75C332.77 89.1487 330.661 87.04 328.06 87.04Z" fill="#061026"/>
<path opacity="0.25" d="M319.116 129.865C321.365 116.013 311.958 102.96 298.106 100.712C284.254 98.4632 271.201 107.87 268.953 121.722C266.704 135.574 276.111 148.627 289.963 150.875C303.815 153.124 316.868 143.717 319.116 129.865Z" fill="white"/>
<path opacity="0.25" d="M294 125.79L319 130.53C318.099 135.266 315.869 139.647 312.571 143.164C309.273 146.68 305.043 149.185 300.375 150.387C295.706 151.589 290.792 151.439 286.206 149.953C281.62 148.467 277.551 145.707 274.475 141.996C271.398 138.285 269.441 133.775 268.832 128.993C268.222 124.21 268.986 119.354 271.033 114.989C273.08 110.625 276.327 106.933 280.393 104.344C284.46 101.756 289.179 100.377 294 100.37V125.79Z" fill="white"/>
<path opacity="0.25" d="M294 125.79V151.2C287.347 151.059 281.014 148.315 276.362 143.557C271.71 138.798 269.109 132.405 269.118 125.751C269.127 119.096 271.746 112.71 276.411 107.965C281.076 103.219 287.416 100.493 294.07 100.37L294 125.79Z" fill="white"/>
<path opacity="0.25" d="M294 125.79L280.61 104.19C282.597 102.952 284.748 102 287 101.36C289.249 100.708 291.578 100.372 293.92 100.36L294 125.79Z" fill="white"/>
<path d="M428.25 176C428.25 176 441.75 199.66 442.75 205.33C443.75 211 431.25 247.25 431.25 247.25C431.25 247.25 434 256.79 431 258.4C428 260.01 422.76 263.25 422 260.5C421.24 257.75 422 248.68 422 248.68L424.26 246.75C424.26 246.75 432.26 208.87 432.26 207.56C432.26 206.25 417.75 183.91 417.75 183.91L428.25 176Z" fill="#E4897B"/>
<path d="M378.48 407.03L370.37 407.88L369.96 403.18L368.85 390.39L376.96 389.53L378.19 403.66L378.48 407.03Z" fill="#E4897B"/>
<path d="M418.96 406H411.1L411.03 404.22L411.02 404L410.62 392.6L410.61 392.37L410.45 388H418.32L418.96 406Z" fill="#E4897B"/>
<path opacity="0.2" d="M376.96 389.53L378.19 403.66L369.96 403.18L368.85 390.39L376.96 389.53Z" fill="black"/>
<path opacity="0.2" d="M418.91 405H418.9L411.03 404H411.02L410.61 393H410.62L418.5 393.63L418.9 404.65L418.91 405Z" fill="black"/>
<path d="M437.28 187.33L423.75 196.53L423.49 196.2L415.28 185.5L410.28 178.94L417.71 158.74C426.25 162 437.28 187.33 437.28 187.33Z" fill="#263238"/>
<path opacity="0.2" d="M423.49 196.2L415.28 185.5L421.87 175.39C421.87 175.39 425.9 185.83 423.49 196.2Z" fill="black"/>
<path d="M410 405.53H419.55C419.707 405.529 419.859 405.582 419.981 405.681C420.103 405.779 420.188 405.917 420.22 406.07L421.77 413.07C421.802 413.24 421.797 413.415 421.754 413.582C421.711 413.749 421.632 413.905 421.523 414.039C421.413 414.173 421.275 414.28 421.119 414.355C420.963 414.429 420.793 414.469 420.62 414.47C417.53 414.42 415.28 414.23 411.4 414.23C409.01 414.23 401.8 414.48 398.5 414.48C395.2 414.48 394.77 411.22 396.12 410.92C402.18 409.6 406.74 407.77 408.68 406.03C409.039 405.699 409.512 405.52 410 405.53Z" fill="#263238"/>
<path d="M369.51 405.28H379.06C379.217 405.279 379.369 405.332 379.491 405.431C379.613 405.529 379.698 405.667 379.73 405.82L381.28 412.82C381.312 412.99 381.307 413.165 381.264 413.332C381.221 413.499 381.142 413.655 381.032 413.789C380.923 413.923 380.785 414.03 380.629 414.105C380.473 414.179 380.303 414.219 380.13 414.22C377.04 414.17 374.79 413.98 370.91 413.98C368.52 413.98 361.31 414.23 358.01 414.23C354.71 414.23 354.28 410.97 355.63 410.67C361.69 409.35 366.25 407.52 368.19 405.78C368.549 405.449 369.022 405.27 369.51 405.28Z" fill="#263238"/>
<path d="M368.11 402H379.64C379.64 402 378.7 302.75 391.17 269.23C392.05 280.31 393.04 291.8 394.01 301.38C394.61 307.31 395.22 312.38 395.79 316.29C399.42 341.29 408.57 403 408.57 403H420C420 403 418.64 343.86 417.3 319.3C415.81 292.63 415.17 234 415.1 229H373.36C369.39 250 359.21 334 368.11 402Z" fill="#061026"/>
<path opacity="0.6" d="M368.11 402H379.64C379.64 402 378.7 302.75 391.17 269.23C392.05 280.31 393.04 291.8 394.01 301.38C394.61 307.31 395.22 312.38 395.79 316.29C399.42 341.29 408.57 403 408.57 403H420C420 403 418.64 343.86 417.3 319.3C415.81 292.63 415.17 234 415.1 229H373.36C369.39 250 359.21 334 368.11 402Z" fill="white"/>
<path d="M388.5 140.87C388.6 141.25 388.71 141.63 388.84 141.98C389.78 144.604 391.682 146.774 394.16 148.05C396.057 149.063 398.233 149.428 400.356 149.089C402.48 148.749 404.434 147.724 405.92 146.17C409.86 142.17 409.76 137.6 410.2 129.83C410.335 128.015 410.003 126.195 409.236 124.545C408.469 122.894 407.292 121.468 405.817 120.401C404.342 119.334 402.619 118.663 400.811 118.451C399.003 118.239 397.172 118.493 395.49 119.19C387.86 122.3 386.82 133.87 388.5 140.87Z" fill="#E4897B"/>
<path opacity="0.2" d="M392.73 147.17C393.184 147.499 393.662 147.794 394.16 148.05C395.462 148.74 396.901 149.132 398.373 149.196C399.845 149.26 401.313 148.995 402.67 148.42C402.325 147.483 401.857 146.595 401.28 145.78C398.356 145.414 395.388 145.897 392.73 147.17Z" fill="black"/>
<path d="M408.38 157.25C404.55 160.73 395.17 159.44 395.17 159.44C395.17 159.44 389.31 157.84 390.54 156.01C393.99 155.44 395.66 153.83 396.35 151.77C396.728 150.493 396.847 149.154 396.7 147.83C396.643 147.092 396.546 146.358 396.41 145.63L408 137C406.49 142.71 404.63 153.14 408.38 157.25Z" fill="#E4897B"/>
<path d="M392.23 124.39C392.31 124.61 392.11 125.06 391.96 125.57C391.681 126.57 391.54 127.602 391.54 128.64C391.572 130.331 391.943 131.999 392.63 133.545C393.317 135.09 394.306 136.483 395.54 137.64C396.407 140.784 397.579 143.835 399.04 146.75C399.165 147.051 399.365 147.316 399.62 147.52C399.964 147.699 400.356 147.765 400.74 147.71L407.52 147.48C407.718 147.5 407.919 147.476 408.107 147.41C408.295 147.345 408.467 147.239 408.61 147.1C408.714 146.906 408.797 146.701 408.86 146.49C409.47 145.03 412.05 145.72 412.94 144.41C413.199 143.817 413.377 143.191 413.47 142.55C414.03 140.93 416.32 140.09 416.24 138.37C416.19 137.37 415.24 136.47 415.56 135.51C415.88 134.55 417.06 134.25 417.56 133.39C418.06 132.53 417.56 131.39 417.01 130.59C416.686 130.211 416.443 129.77 416.295 129.294C416.147 128.817 416.098 128.316 416.15 127.82C416.289 127.451 416.463 127.096 416.67 126.76C416.99 126.085 417.097 125.328 416.977 124.591C416.857 123.853 416.517 123.17 416 122.63C415.527 122.261 415.11 121.827 414.76 121.34C414.3 120.47 414.69 119.34 414.13 118.47C413.57 117.6 412.42 117.63 411.44 117.69C410.46 117.75 409.3 117.69 408.72 116.95C408.3 116.38 408.32 115.57 407.86 115.04C407.2 114.3 406 114.5 405.07 114.87C404.14 115.24 403.12 115.71 402.22 115.3C401.59 115.01 401.22 114.37 400.65 113.99C400.246 113.729 399.77 113.603 399.291 113.63C398.811 113.657 398.352 113.836 397.98 114.14C397.48 114.57 397.18 115.22 396.61 115.56C395.74 115.905 394.77 115.905 393.9 115.56C393.467 115.387 392.995 115.336 392.535 115.412C392.075 115.488 391.645 115.687 391.29 115.99C390.45 116.99 391.36 118.77 390.5 119.78C390.01 120.36 389.11 120.44 388.58 120.98C388.417 121.176 388.305 121.408 388.255 121.658C388.204 121.907 388.216 122.165 388.289 122.409C388.362 122.653 388.495 122.874 388.675 123.054C388.855 123.234 389.076 123.367 389.32 123.44C389.62 123.5 390.01 123.52 390.12 123.8C390.15 123.925 390.17 124.052 390.18 124.18C390.29 124.57 390.84 124.59 391.18 124.46C391.88 124.19 392.16 124.21 392.23 124.39Z" fill="#263238"/>
<path d="M397.15 134.35C397.003 135.082 396.694 135.772 396.246 136.369C395.798 136.966 395.222 137.455 394.56 137.8C392.98 138.47 391.94 136.24 392.17 133.91C392.39 131.83 393.46 128.91 395.17 129.3C396.88 129.69 397.7 132.26 397.15 134.35Z" fill="#E4897B"/>
<path opacity="0.2" d="M391.17 269.18C392.05 280.26 393.04 291.78 394.01 301.36C395.43 287.53 397.17 277.67 397.17 277.67C397.17 277.67 398.8 276.33 403.28 269.18C407.76 262.03 403.28 248.68 403.28 248.68C403.42 261.08 391.17 269.18 391.17 269.18Z" fill="black"/>
<path d="M417 237.33L369.33 235C370.384 217.637 372.502 200.354 375.67 183.25C376.972 176.379 378.642 169.583 380.67 162.89C381.702 159.495 382.914 156.157 384.3 152.89C384.3 152.89 413.93 155.33 420 160C426.07 164.67 416.67 213 417 237.33Z" fill="#263238"/>
<path d="M392.14 153.68C392.14 153.68 396.67 150.12 405.14 150.31C413.61 150.5 414.47 153.68 414.47 153.68C414.47 153.68 423.8 158.33 416.47 166C409.14 173.67 394.7 154.24 394.7 154.24L392.14 153.68Z" fill="#263238"/>
<path opacity="0.25" d="M392.14 153.68C392.14 153.68 396.67 150.12 405.14 150.31C413.61 150.5 414.47 153.68 414.47 153.68C414.47 153.68 423.8 158.33 416.47 166C409.14 173.67 394.7 154.24 394.7 154.24L392.14 153.68Z" fill="white"/>
<path opacity="0.2" d="M385.05 163.5C385.05 163.5 383 177 375.67 183.25C376.973 176.379 378.642 169.583 380.67 162.89L385.05 163.5Z" fill="black"/>
<path d="M378.94 153.06C378.94 153.06 349.33 147.01 345.17 145.42C341.01 143.83 319 122.79 319 122.79L314.18 126.43C314.18 126.43 330.67 147.83 338.92 154C347.17 160.17 376 169.49 376 169.49L378.94 153.06Z" fill="#E4897B"/>
<path d="M385.12 153.06L359.33 148.35L358.67 166.17L377.94 174C377.94 174 390.09 161.81 385.12 153.06Z" fill="#263238"/>
<path d="M319 122.79C316.63 120.08 308 114.23 306.73 113.73C305.46 113.23 303.62 120.88 303.99 121.88C304.36 122.88 308.6 125 310.74 125.25C312.88 125.5 315.16 127.69 315.16 127.69L319 122.79Z" fill="#E4897B"/>
<path d="M357.93 147.7L360.76 148.35L359.47 166.49L356.76 165.5L357.93 147.7Z" fill="#263238"/>
<path opacity="0.25" d="M357.93 147.7L360.76 148.35L359.47 166.49L356.76 165.5L357.93 147.7Z" fill="white"/>
<path d="M422 196.38L437.28 186.03L438.33 188.67L423.77 197.83L422 196.38Z" fill="#263238"/>
<path opacity="0.25" d="M422 196.38L437.28 186.03L438.33 188.67L423.77 197.83L422 196.38Z" fill="white"/>
<path d="M366.81 398.75L367.38 402H381V399L366.81 398.75Z" fill="#061026"/>
<path d="M407.27 400L408.57 403H420L420.75 400H407.27Z" fill="#061026"/>
</svg>
