<svg width="269" height="60" viewBox="0 0 269 60" fill="none" xmlns="http://www.w3.org/2000/svg">
<path opacity="0.25" d="M59.7943 47.4509C69.4322 37.2503 68.976 21.168 58.7754 11.5302C48.5748 1.89231 32.4925 2.34851 22.8547 12.5491C13.2168 22.7497 13.673 38.832 23.8736 48.4698C34.0742 58.1077 50.1565 57.6515 59.7943 47.4509Z" fill="#05112B"/>
<path opacity="0.25" d="M41.298 29.9778L59.3248 47.9362C55.9202 51.3492 51.615 53.7232 46.9119 54.7813C42.2087 55.8393 37.3016 55.5376 32.7634 53.9115C28.2253 52.2853 24.2433 49.4017 21.2825 45.5974C18.3216 41.7931 16.5041 37.2251 16.042 32.4265C15.5799 27.628 16.4923 22.7971 18.6728 18.4977C20.8532 14.1982 24.2117 10.6078 28.3562 8.1455C32.5006 5.6832 37.26 4.45063 42.0786 4.59172C46.8973 4.7328 51.5764 6.24171 55.5696 8.94228L41.298 29.9778Z" fill="white"/>
<path opacity="0.25" d="M41.8565 30.0052L27.5904 51.0325C22.1638 47.1807 18.4641 41.3543 17.2858 34.8048C16.1074 28.2553 17.5444 21.5048 21.2882 16.003C25.0319 10.5013 30.7839 6.68703 37.3089 5.37933C43.8338 4.07163 50.6114 5.37481 56.1861 9.00899L41.8565 30.0052Z" fill="white"/>
<path opacity="0.25" d="M41.298 29.9779L42.3445 4.58582C44.6837 4.67703 46.9986 5.09636 49.2212 5.83152C51.4485 6.55503 53.5646 7.58405 55.5091 8.88914L41.298 29.9779Z" fill="white"/>
<path d="M74.3599 23.3516C75.7922 23.4297 77.0943 23.7813 78.2662 24.4063C79.438 25.0052 80.4146 25.8125 81.1959 26.8282C82.0032 27.8177 82.6282 28.9766 83.0709 30.3047C83.5136 31.6328 83.7349 33.0521 83.7349 34.5625C83.7349 36.0729 83.5005 37.4922 83.0318 38.8203C82.5891 40.1224 81.9641 41.2683 81.1568 42.2578C80.3495 43.2214 79.3599 44.0026 78.188 44.6016C77.0162 45.2006 75.7401 45.5521 74.3599 45.6563L74.3599 41.9063C75.662 41.6198 76.7167 40.7995 77.524 39.4453C78.3573 38.0912 78.774 36.4636 78.774 34.5625C78.774 33.599 78.6698 32.7006 78.4615 31.8672C78.2792 31.0078 77.9927 30.2396 77.6021 29.5625C77.2115 28.8854 76.7427 28.3256 76.1959 27.8828C75.649 27.4401 75.037 27.1537 74.3599 27.0235L74.3599 23.3516ZM63.4615 34.4844C63.4615 32.974 63.6828 31.5677 64.1255 30.2657C64.5683 28.9636 65.1933 27.8308 66.0005 26.8672C66.8339 25.8776 67.8235 25.0834 68.9693 24.4844C70.1151 23.8854 71.3782 23.5209 72.7584 23.3907L72.7584 27.0235C71.4563 27.3099 70.4146 28.1302 69.6334 29.4844C68.8521 30.8386 68.4615 32.4662 68.4615 34.3672C68.4615 35.3308 68.5526 36.2422 68.7349 37.1016C68.9433 37.961 69.2297 38.7292 69.5943 39.4063C69.9589 40.0834 70.4016 40.6433 70.9224 41.086C71.4693 41.5287 72.0813 41.8021 72.7584 41.9063L72.7584 45.6563C71.3261 45.5521 70.037 45.2006 68.8912 44.6016C67.7453 43.9766 66.7688 43.1693 65.9615 42.1797C65.1542 41.1901 64.5292 40.0313 64.0865 38.7032C63.6698 37.375 63.4615 35.9688 63.4615 34.4844ZM96.1568 38.8203C96.1568 39.7058 96.274 40.3959 96.5084 40.8907C96.7427 41.3854 97.0683 41.7631 97.4849 42.0235C97.9276 42.2839 98.4094 42.4532 98.9302 42.5313C99.4771 42.5834 100.05 42.6094 100.649 42.6094L100.649 45.5C100.31 45.5521 99.9719 45.5912 99.6334 45.6172C99.3469 45.6433 98.9953 45.6563 98.5787 45.6563C98.188 45.6823 97.7974 45.6953 97.4068 45.6953C97.0162 45.6953 96.6125 45.6823 96.1959 45.6563C95.8052 45.6302 95.4667 45.5912 95.1802 45.5391C94.2948 45.3828 93.6047 45.0052 93.1099 44.4063C92.6151 43.7813 92.2375 43.1042 91.9771 42.375C91.7427 41.6198 91.5865 40.8907 91.5084 40.1875C91.4563 39.4844 91.4302 38.9375 91.4302 38.5469L91.4302 26.6719L88.5396 26.6719L88.5396 23.4688L91.4302 23.4688L91.4302 17.2188L96.1568 17.2188L96.1568 23.4688L99.6724 23.4688L99.6724 26.6719L96.1568 26.6719L96.1568 38.8203ZM110.024 38.8594C110.024 40.0313 110.258 40.9037 110.727 41.4766C111.222 42.0495 111.925 42.3881 112.836 42.4922L112.836 45.6563C112.732 45.6823 112.563 45.6953 112.329 45.6953C111.443 45.6953 110.584 45.5782 109.751 45.3438C108.943 45.1094 108.227 44.7318 107.602 44.211C106.977 43.6901 106.482 43 106.118 42.1407C105.779 41.2813 105.61 40.2266 105.61 38.9766C105.61 37.7787 105.857 36.75 106.352 35.8907C106.873 35.0052 107.524 34.2891 108.305 33.7422C109.113 33.1693 110.024 32.7526 111.04 32.4922C112.055 32.2058 113.084 32.0625 114.126 32.0625L115.844 32.0625L115.844 34.836L114.985 34.836C114.464 34.836 113.917 34.8881 113.344 34.9922C112.771 35.0964 112.238 35.2917 111.743 35.5782C111.248 35.8646 110.831 36.2813 110.493 36.8282C110.18 37.349 110.024 38.0261 110.024 38.8594ZM122.172 38.9766C122.172 39.1849 122.185 39.4974 122.211 39.9141C122.238 40.3047 122.29 40.7084 122.368 41.125C122.446 41.5417 122.563 41.9193 122.719 42.2578C122.902 42.5964 123.136 42.8177 123.422 42.9219L122.172 45.5391C121.834 45.5391 121.469 45.461 121.079 45.3047C120.714 45.1485 120.35 44.9271 119.985 44.6407C119.646 44.3542 119.347 44.0417 119.086 43.7032C118.852 43.3386 118.67 42.9479 118.54 42.5313C118.279 43.1823 117.758 43.7683 116.977 44.2891C116.222 44.7839 115.376 45.1485 114.438 45.3828L114.438 42.4141C115.063 42.2839 115.623 42.0365 116.118 41.6719C116.639 41.2813 117.081 40.8256 117.446 40.3047L117.446 32.0625C117.446 30.7865 117.381 29.7709 117.251 29.0157C117.12 28.2604 116.899 27.7136 116.586 27.375C116.274 27.0104 115.883 26.7891 115.415 26.711C114.972 26.6068 114.438 26.5547 113.813 26.5547C113.24 26.5547 112.693 26.6328 112.172 26.7891C111.678 26.9193 111.209 27.0886 110.766 27.2969C110.35 27.4792 109.972 27.6875 109.633 27.9219C109.321 28.1563 109.086 28.3386 108.93 28.4688L107.172 25.7735C107.433 25.487 107.823 25.2006 108.344 24.9141C108.865 24.6016 109.464 24.3282 110.141 24.0938C110.818 23.8594 111.547 23.6771 112.329 23.5469C113.136 23.3907 113.969 23.3125 114.829 23.3125C115.61 23.3125 116.365 23.3907 117.094 23.5469C117.85 23.7032 118.527 23.9636 119.126 24.3282C119.751 24.6927 120.284 25.1875 120.727 25.8125C121.196 26.4115 121.521 27.1667 121.704 28.0782C121.886 28.9896 122.003 29.9141 122.055 30.8516C122.133 31.7631 122.172 32.6745 122.172 33.586L122.172 38.6641L122.172 38.9766ZM144.282 29.1719C143.891 28.7032 143.344 28.2735 142.641 27.8828C141.964 27.4662 141.053 27.2188 139.907 27.1407L139.907 23.3907C141.339 23.4688 142.563 23.7813 143.579 24.3282C144.62 24.849 145.558 25.6172 146.391 26.6328L144.282 29.1719ZM139.907 41.7891C140.844 41.6849 141.639 41.4636 142.29 41.125C142.967 40.7604 143.605 40.3438 144.204 39.875L145.961 42.4141C145.154 43.4297 144.282 44.211 143.344 44.7578C142.407 45.2787 141.261 45.5782 139.907 45.6563L139.907 41.7891ZM129.008 34.4844C129.008 33 129.217 31.6068 129.633 30.3047C130.076 29.0026 130.714 27.8568 131.547 26.8672C132.381 25.8776 133.357 25.0834 134.477 24.4844C135.623 23.8594 136.899 23.4948 138.305 23.3907L138.305 27.1797C137.003 27.4662 135.961 28.2735 135.18 29.6016C134.399 30.9037 134.008 32.4922 134.008 34.3672C134.008 35.3308 134.1 36.2422 134.282 37.1016C134.49 37.9349 134.777 38.6771 135.141 39.3282C135.506 39.9792 135.948 40.5261 136.469 40.9688C137.016 41.4115 137.628 41.6849 138.305 41.7891L138.305 45.6563C136.873 45.5782 135.584 45.2396 134.438 44.6407C133.292 44.0157 132.316 43.2084 131.508 42.2188C130.701 41.2032 130.076 40.0313 129.633 38.7032C129.217 37.375 129.008 35.9688 129.008 34.4844ZM137.641 48.2735C138.084 48.0912 138.54 47.987 139.008 47.961C139.477 47.961 139.907 48.0651 140.297 48.2735C140.714 48.4818 141.053 48.7292 141.313 49.0157C141.6 49.3282 141.821 49.6667 141.977 50.0313C142.133 50.4219 142.211 50.7995 142.211 51.1641C142.211 52.362 141.808 53.2995 141.001 53.9766C140.219 54.6537 139.152 54.9922 137.797 54.9922L137.797 52.7266C139.204 52.7266 139.907 52.2318 139.907 51.2422C139.907 50.7995 139.711 50.4089 139.321 50.0703C138.956 49.7578 138.461 49.6016 137.836 49.6016C137.498 49.6016 137.081 49.6797 136.586 49.836L134.985 49.0938L137.251 45.2266L140.258 45.2266L137.641 48.2735ZM156.313 38.8594C156.313 40.0313 156.547 40.9037 157.016 41.4766C157.511 42.0495 158.214 42.3881 159.126 42.4922L159.126 45.6563C159.021 45.6823 158.852 45.6953 158.618 45.6953C157.732 45.6953 156.873 45.5782 156.04 45.3438C155.232 45.1094 154.516 44.7318 153.891 44.211C153.266 43.6901 152.771 43 152.407 42.1407C152.068 41.2813 151.899 40.2266 151.899 38.9766C151.899 37.7787 152.146 36.75 152.641 35.8907C153.162 35.0052 153.813 34.2891 154.594 33.7422C155.402 33.1693 156.313 32.7526 157.329 32.4922C158.344 32.2058 159.373 32.0625 160.415 32.0625L162.133 32.0625L162.133 34.836L161.274 34.836C160.753 34.836 160.206 34.8881 159.633 34.9922C159.06 35.0964 158.527 35.2917 158.032 35.5782C157.537 35.8646 157.12 36.2813 156.782 36.8282C156.469 37.349 156.313 38.0261 156.313 38.8594ZM168.461 38.9766C168.461 39.1849 168.475 39.4974 168.501 39.9141C168.527 40.3047 168.579 40.7084 168.657 41.125C168.735 41.5417 168.852 41.9193 169.008 42.2578C169.191 42.5964 169.425 42.8177 169.711 42.9219L168.461 45.5391C168.123 45.5391 167.758 45.461 167.368 45.3047C167.003 45.1485 166.639 44.9271 166.274 44.6407C165.935 44.3542 165.636 44.0417 165.376 43.7032C165.141 43.3386 164.959 42.9479 164.829 42.5313C164.568 43.1823 164.047 43.7683 163.266 44.2891C162.511 44.7839 161.665 45.1485 160.727 45.3828L160.727 42.4141C161.352 42.2839 161.912 42.0365 162.407 41.6719C162.928 41.2813 163.37 40.8256 163.735 40.3047L163.735 32.0625C163.735 30.7865 163.67 29.7709 163.54 29.0157C163.409 28.2604 163.188 27.7136 162.876 27.375C162.563 27.0104 162.172 26.7891 161.704 26.711C161.261 26.6068 160.727 26.5547 160.102 26.5547C159.529 26.5547 158.982 26.6328 158.461 26.7891C157.967 26.9193 157.498 27.0886 157.055 27.2969C156.639 27.4792 156.261 27.6875 155.922 27.9219C155.61 28.1563 155.376 28.3386 155.219 28.4688L153.461 25.7735C153.722 25.487 154.113 25.2006 154.633 24.9141C155.154 24.6016 155.753 24.3282 156.43 24.0938C157.107 23.8594 157.836 23.6771 158.618 23.5469C159.425 23.3907 160.258 23.3125 161.118 23.3125C161.899 23.3125 162.654 23.3907 163.383 23.5469C164.139 23.7032 164.816 23.9636 165.415 24.3282C166.04 24.6927 166.573 25.1875 167.016 25.8125C167.485 26.4115 167.81 27.1667 167.993 28.0782C168.175 28.9896 168.292 29.9141 168.344 30.8516C168.422 31.7631 168.461 32.6745 168.461 33.586L168.461 38.6641L168.461 38.9766ZM153.93 19.3282C154.113 18.8854 154.347 18.4558 154.633 18.0391C154.92 17.5964 155.245 17.2058 155.61 16.8672C156.001 16.5287 156.417 16.2552 156.86 16.0469C157.329 15.8386 157.823 15.7344 158.344 15.7344C158.813 15.7344 159.282 15.7995 159.751 15.9297C160.245 16.0599 160.688 16.2162 161.079 16.3985C161.495 16.5808 161.899 16.737 162.29 16.8672C162.68 16.9974 163.032 17.0625 163.344 17.0625C163.787 17.0625 164.152 16.9584 164.438 16.75C164.725 16.5417 164.972 16.099 165.18 15.4219L167.719 16.1641C167.407 17.3099 166.86 18.1953 166.079 18.8203C165.297 19.4193 164.386 19.7188 163.344 19.7188C162.902 19.7188 162.459 19.6537 162.016 19.5235C161.6 19.3672 161.183 19.211 160.766 19.0547C160.376 18.8724 159.985 18.7162 159.594 18.586C159.204 18.4558 158.787 18.3907 158.344 18.3907C157.928 18.3907 157.537 18.599 157.172 19.0157C156.834 19.4063 156.547 19.862 156.313 20.3828L153.93 19.3282ZM186.274 23.3516C187.706 23.4297 189.008 23.7813 190.18 24.4063C191.352 25.0052 192.329 25.8125 193.11 26.8282C193.917 27.8177 194.542 28.9766 194.985 30.3047C195.428 31.6328 195.649 33.0521 195.649 34.5625C195.649 36.0729 195.415 37.4922 194.946 38.8203C194.503 40.1224 193.878 41.2683 193.071 42.2578C192.264 43.2214 191.274 44.0026 190.102 44.6016C188.93 45.2006 187.654 45.5521 186.274 45.6563L186.274 41.9063C187.576 41.6198 188.631 40.7995 189.438 39.4453C190.271 38.0912 190.688 36.4636 190.688 34.5625C190.688 33.599 190.584 32.7006 190.376 31.8672C190.193 31.0078 189.907 30.2396 189.516 29.5625C189.126 28.8854 188.657 28.3256 188.11 27.8828C187.563 27.4401 186.951 27.1537 186.274 27.0235L186.274 23.3516ZM175.376 34.4844C175.376 32.974 175.597 31.5677 176.04 30.2657C176.482 28.9636 177.107 27.8308 177.915 26.8672C178.748 25.8776 179.738 25.0834 180.883 24.4844C182.029 23.8854 183.292 23.5209 184.672 23.3907L184.672 27.0235C183.37 27.3099 182.329 28.1302 181.547 29.4844C180.766 30.8386 180.376 32.4662 180.376 34.3672C180.376 35.3308 180.467 36.2422 180.649 37.1016C180.857 37.961 181.144 38.7292 181.508 39.4063C181.873 40.0834 182.316 40.6433 182.836 41.086C183.383 41.5287 183.995 41.8021 184.672 41.9063L184.672 45.6563C183.24 45.5521 181.951 45.2006 180.805 44.6016C179.659 43.9766 178.683 43.1693 177.876 42.1797C177.068 41.1901 176.443 40.0313 176.001 38.7032C175.584 37.375 175.376 35.9688 175.376 34.4844ZM215.766 30.3438C216.365 30.4219 217.003 30.6172 217.68 30.9297C218.357 31.2422 218.982 31.6849 219.555 32.2578C220.154 32.8308 220.649 33.5339 221.04 34.3672C221.43 35.1745 221.626 36.112 221.626 37.1797C221.626 38.4818 221.43 39.6016 221.04 40.5391C220.649 41.4766 220.154 42.2578 219.555 42.8828C218.982 43.4818 218.344 43.9636 217.641 44.3282C216.964 44.6667 216.3 44.9271 215.649 45.1094C215.024 45.2917 214.464 45.4089 213.969 45.461C213.475 45.487 213.149 45.5 212.993 45.5L208.461 45.5L208.461 42.0625L212.719 42.0625C214.1 42.0625 215.18 41.6198 215.961 40.7344C216.743 39.849 217.133 38.6641 217.133 37.1797C217.133 35.7735 216.73 34.5886 215.922 33.625C215.115 32.6615 213.93 32.1797 212.368 32.1797L208.461 32.1797L208.461 29.0157L210.336 29.0157C210.909 29.0157 211.495 29.0026 212.094 28.9766C212.693 28.9506 213.253 28.8073 213.774 28.5469C214.295 28.2865 214.711 27.8438 215.024 27.2188C215.363 26.5938 215.532 25.6953 215.532 24.5235C215.532 24.0547 215.467 23.5729 215.336 23.0782C215.206 22.5573 214.946 22.0886 214.555 21.6719C214.165 21.2552 213.605 20.9167 212.876 20.6563C212.146 20.3959 211.183 20.2657 209.985 20.2657L208.461 20.2657L208.461 16.711L210.454 16.711C211.678 16.711 212.863 16.8542 214.008 17.1407C215.154 17.4271 216.17 17.8828 217.055 18.5078C217.941 19.1328 218.644 19.9532 219.165 20.9688C219.685 21.9584 219.946 23.1433 219.946 24.5235C219.946 25.3308 219.816 26.0729 219.555 26.75C219.295 27.4011 218.969 27.974 218.579 28.4688C218.188 28.9636 217.732 29.3802 217.211 29.7188C216.717 30.0313 216.235 30.2396 215.766 30.3438ZM202.172 16.711L206.86 16.711L206.86 45.5L202.172 45.5L202.172 16.711ZM228.149 16.711L232.836 16.711L232.836 45.5L228.149 45.5L228.149 16.711ZM247.68 45.5L242.719 45.5L237.29 35.0703C237.211 35.0703 237.12 35.0834 237.016 35.1094C236.938 35.1094 236.808 35.1094 236.626 35.1094C236.443 35.1094 236.17 35.1094 235.805 35.1094C235.467 35.1094 235.011 35.1094 234.438 35.1094L234.438 31.6719L237.094 31.6719C237.667 31.6719 238.24 31.5808 238.813 31.3985C239.386 31.1901 239.907 30.8646 240.376 30.4219C240.844 29.9792 241.222 29.3672 241.508 28.586C241.795 27.7787 241.938 26.7891 241.938 25.6172C241.938 25.1485 241.873 24.6146 241.743 24.0157C241.613 23.3907 241.339 22.8047 240.922 22.2578C240.532 21.6849 239.972 21.2162 239.243 20.8516C238.514 20.461 237.55 20.2657 236.352 20.2657L234.438 20.2657L234.438 16.711L236.43 16.711C237.654 16.711 238.865 16.9063 240.063 17.2969C241.261 17.6875 242.329 18.2735 243.266 19.0547C244.23 19.836 244.998 20.7865 245.571 21.9063C246.17 23 246.469 24.237 246.469 25.6172C246.469 27.7006 245.988 29.4714 245.024 30.9297C244.06 32.3881 242.758 33.4688 241.118 34.1719L247.68 45.5Z" fill="white"/>
</svg>
